M48
;Layer_Color=9474304
;FILE_FORMAT=4:4
METRIC,LZ
;TYPE=PLATED
T1F00S00C0.2500
T2F00S00C0.3000
T3F00S00C0.6000
%
T01
X00286Y00006
X00296
X00306
X00316
X00326
X00336
X00346
X00356
X00366
X00371Y00011
X00376Y00006
X00381Y00016
X00391
X00361
X00351
X00341
X00335Y0002
X00346Y00026
X00356
X00366
X00362Y0003971
X00374087Y00060953
X00376Y00086
X0036121Y00094918
X00352Y0009
X00358Y0008
X00336Y00086
X00321Y00084
X00321Y00096
X00311Y00102
X00306Y00086
X00301Y00076
Y00056
X00296Y00046
X00306
Y00026
X00296
X00286
X00291Y00016
X00301
X00311
X00328Y0003546
X00326Y00066
X0034Y0006004
X00286Y00046
X00277425Y00091
X00291Y00096
X00275Y00123
X0027529Y00132
X0031164Y0012899
Y00138
X00318801Y00134611
X00326835Y00132835
X0033817Y00134
X00384Y00138
X00381Y00116
X0039071Y0011433
X0039444Y0009904
X0036628Y00104
X00366Y00112
X0036Y00161
X00361523Y00171654
X00371Y00187
X00391Y00196
X00396Y00206
Y00226
Y00246
X00391Y00256
X00381
X00376Y00266
X00326
X00321Y00256
X00310815Y0023471
X00317Y00213
X00309Y00204
X0032883Y00199156
X00327967Y00182033
X00321Y00181
X00332Y0017718
X0033853Y0018047
X00338Y00156
X00331Y00156
X00321
X00326Y00146
X00336
X00384834Y00149676
X00383Y00167
X00346Y00206
X00351Y00216
X0036Y00232
X00277Y00224
X00279Y00209
X0028096Y00186
X00282Y00177
T02
X00317Y00147
X00336Y0025
Y00263
T03
X00382Y002095
Y00222
Y002345
Y00247
M30
