G04*
G04 #@! TF.GenerationSoftware,Altium Limited,Altium Designer,21.6.1 (37)*
G04*
G04 Layer_Physical_Order=1*
G04 Layer_Color=255*
%FSLAX44Y44*%
%MOMM*%
G71*
G04*
G04 #@! TF.SameCoordinates,A3892E78-241B-427D-A5EC-4F0B57241F16*
G04*
G04*
G04 #@! TF.FilePolarity,Positive*
G04*
G01*
G75*
%ADD10C,0.2000*%
%ADD13C,0.1270*%
%ADD15C,0.1700*%
%ADD18R,0.5600X0.6000*%
G04:AMPARAMS|DCode=20|XSize=0.84mm|YSize=0.2mm|CornerRadius=0.025mm|HoleSize=0mm|Usage=FLASHONLY|Rotation=180.000|XOffset=0mm|YOffset=0mm|HoleType=Round|Shape=RoundedRectangle|*
%AMROUNDEDRECTD20*
21,1,0.8400,0.1500,0,0,180.0*
21,1,0.7900,0.2000,0,0,180.0*
1,1,0.0500,-0.3950,0.0750*
1,1,0.0500,0.3950,0.0750*
1,1,0.0500,0.3950,-0.0750*
1,1,0.0500,-0.3950,-0.0750*
%
%ADD20ROUNDEDRECTD20*%
G04:AMPARAMS|DCode=21|XSize=0.2mm|YSize=0.84mm|CornerRadius=0.025mm|HoleSize=0mm|Usage=FLASHONLY|Rotation=180.000|XOffset=0mm|YOffset=0mm|HoleType=Round|Shape=RoundedRectangle|*
%AMROUNDEDRECTD21*
21,1,0.2000,0.7900,0,0,180.0*
21,1,0.1500,0.8400,0,0,180.0*
1,1,0.0500,-0.0750,0.3950*
1,1,0.0500,0.0750,0.3950*
1,1,0.0500,0.0750,-0.3950*
1,1,0.0500,-0.0750,-0.3950*
%
%ADD21ROUNDEDRECTD21*%
%ADD22R,0.5400X0.6000*%
%ADD23R,0.6000X0.5400*%
G04:AMPARAMS|DCode=24|XSize=1.2mm|YSize=3.5mm|CornerRadius=0.3mm|HoleSize=0mm|Usage=FLASHONLY|Rotation=180.000|XOffset=0mm|YOffset=0mm|HoleType=Round|Shape=RoundedRectangle|*
%AMROUNDEDRECTD24*
21,1,1.2000,2.9000,0,0,180.0*
21,1,0.6000,3.5000,0,0,180.0*
1,1,0.6000,-0.3000,1.4500*
1,1,0.6000,0.3000,1.4500*
1,1,0.6000,0.3000,-1.4500*
1,1,0.6000,-0.3000,-1.4500*
%
%ADD24ROUNDEDRECTD24*%
%ADD25R,1.2000X3.5000*%
%ADD26R,0.6000X0.5600*%
%ADD27R,0.3000X0.5250*%
%ADD28R,0.8500X0.6500*%
%ADD29R,0.8500X0.5500*%
%ADD30R,0.5588X1.3208*%
%ADD31R,1.0000X2.7000*%
%ADD32R,0.6000X1.7000*%
%ADD33R,0.9000X0.7000*%
%ADD34R,0.4000X1.5000*%
%ADD53R,3.1000X3.1000*%
%ADD54R,2.4500X1.6500*%
%ADD55C,0.5000*%
%ADD56C,0.2500*%
%ADD57C,0.9000*%
%ADD58C,0.5040*%
%ADD59C,0.5100*%
G36*
X399451Y251944D02*
Y135669D01*
X398278Y135183D01*
X388983Y144478D01*
X388353Y144899D01*
X387610Y145046D01*
X385952D01*
X382025Y148974D01*
Y149365D01*
X381877Y150108D01*
X381456Y150738D01*
X377936Y154258D01*
X377463Y155437D01*
X377945Y156600D01*
Y158100D01*
X377463Y159263D01*
X377463Y159437D01*
X377945Y160600D01*
Y160777D01*
X378710Y161730D01*
X386650D01*
Y165908D01*
X386790Y166246D01*
Y167754D01*
X386650Y168092D01*
Y170270D01*
X385009D01*
X383754Y170790D01*
X382246D01*
X380991Y170270D01*
X378710D01*
X377657Y170795D01*
X377463Y171263D01*
X377463Y171437D01*
X377945Y172600D01*
Y174100D01*
X377463Y175263D01*
X377463Y175437D01*
X377945Y176600D01*
Y178100D01*
X377463Y179263D01*
X377463Y179437D01*
X377945Y180600D01*
Y182100D01*
X377463Y183263D01*
X376300Y183745D01*
X374901D01*
X374547Y184315D01*
X374280Y185015D01*
X374790Y186246D01*
Y187754D01*
X374213Y189147D01*
X373315Y190045D01*
Y235041D01*
X375516Y237243D01*
X376593Y236523D01*
X376230Y235648D01*
Y233352D01*
X377109Y231231D01*
X378732Y229608D01*
X380352Y228937D01*
Y227563D01*
X378732Y226892D01*
X377109Y225268D01*
X376230Y223148D01*
Y220852D01*
X377109Y218732D01*
X378732Y217108D01*
X380853Y216230D01*
X383148D01*
X385269Y217108D01*
X386892Y218732D01*
X387770Y220852D01*
Y223148D01*
X386892Y225268D01*
X385269Y226892D01*
X383649Y227563D01*
Y228937D01*
X385269Y229608D01*
X386892Y231231D01*
X387770Y233352D01*
Y235648D01*
X386892Y237768D01*
X385269Y239391D01*
X383649Y240063D01*
Y241437D01*
X385269Y242108D01*
X386892Y243731D01*
X387770Y245852D01*
Y248148D01*
X386892Y250268D01*
X385269Y251891D01*
X383148Y252770D01*
X380853D01*
X378732Y251891D01*
X377109Y250268D01*
X376230Y248148D01*
Y245852D01*
X376625Y244898D01*
X369363Y237636D01*
X368862Y236885D01*
X368685Y236000D01*
Y190045D01*
X367787Y189147D01*
X367665Y188852D01*
X366395Y189105D01*
Y193650D01*
X365913Y194813D01*
X364750Y195295D01*
X363250D01*
X362086Y194813D01*
X361913Y194813D01*
X360750Y195295D01*
X359250D01*
X358087Y194813D01*
X357913Y194813D01*
X356750Y195295D01*
X355250D01*
X354899Y195150D01*
X354199Y195496D01*
X353942Y197001D01*
X357815Y200875D01*
X358237Y201505D01*
X358384Y202248D01*
X358384Y202248D01*
Y204412D01*
X358460Y204462D01*
X359730Y203783D01*
Y200230D01*
X366270D01*
Y217770D01*
X359730D01*
Y211929D01*
X359095Y210942D01*
X358352Y210794D01*
X357722Y210373D01*
X355069Y207720D01*
X354648Y207090D01*
X354500Y206347D01*
Y203053D01*
X350390Y198942D01*
X344744D01*
X344001Y198794D01*
X343371Y198373D01*
X342688Y197691D01*
X342570Y197618D01*
X342289Y197560D01*
X341132Y197615D01*
X340942Y197805D01*
Y200230D01*
X342270D01*
Y217770D01*
X335730D01*
Y202114D01*
X334460Y201436D01*
X334270Y201563D01*
Y208650D01*
X326688D01*
X325618Y209580D01*
X325584Y209860D01*
Y217090D01*
X325408Y217976D01*
X324906Y218727D01*
X317089Y226545D01*
X316338Y227046D01*
X315452Y227222D01*
X314801D01*
X308339Y233685D01*
Y237230D01*
X317870D01*
Y273451D01*
X328730D01*
Y237230D01*
X343270D01*
Y273451D01*
X377944D01*
X399451Y251944D01*
D02*
G37*
G36*
X349662Y193788D02*
X349605Y193650D01*
Y185750D01*
X350086Y184587D01*
X351250Y184105D01*
X352750D01*
X353913Y184587D01*
X354086Y184587D01*
X355250Y184105D01*
X356750D01*
X357913Y184587D01*
X358087Y184587D01*
X359250Y184105D01*
X360750D01*
X361913Y184587D01*
X362086Y184587D01*
X363250Y184105D01*
X364750D01*
X365913Y184587D01*
X367284Y184578D01*
X367316Y184538D01*
X367236Y183263D01*
X366754Y182100D01*
Y180600D01*
X367236Y179437D01*
X367236Y179263D01*
X366754Y178100D01*
Y176600D01*
X367236Y175437D01*
X367236Y175263D01*
X366754Y174100D01*
Y172600D01*
X367236Y171437D01*
X367236Y171263D01*
X366754Y170100D01*
Y168600D01*
X367236Y167437D01*
X367236Y167263D01*
X366754Y166100D01*
Y164600D01*
X367236Y163437D01*
X367236Y163263D01*
X366754Y162100D01*
Y160600D01*
X367236Y159437D01*
X367236Y159263D01*
X366754Y158100D01*
Y156600D01*
X367236Y155437D01*
X367236Y155263D01*
X366754Y154100D01*
Y152600D01*
X367236Y151437D01*
X367236Y151263D01*
X366754Y150100D01*
Y150043D01*
X366134Y149628D01*
X366134Y149628D01*
X364871Y148366D01*
X364450Y147736D01*
X364302Y146993D01*
Y126595D01*
X363250D01*
X363112Y126538D01*
X362000Y126144D01*
X360888Y126538D01*
X360750Y126595D01*
X359250D01*
X359112Y126538D01*
X358000Y126144D01*
X356888Y126538D01*
X356750Y126595D01*
X355250D01*
X355112Y126538D01*
X354000Y126144D01*
X352888Y126538D01*
X352750Y126595D01*
X351250D01*
X350791Y127769D01*
X350718Y128035D01*
X361373Y138691D01*
X361373Y138691D01*
X361795Y139321D01*
X361942Y140064D01*
Y157702D01*
X362147Y157787D01*
X363213Y158853D01*
X363790Y160246D01*
Y161754D01*
X363213Y163147D01*
X362147Y164213D01*
X361495Y164483D01*
X361385Y164598D01*
X360993Y165963D01*
X361039Y166033D01*
X361187Y166776D01*
Y167552D01*
X361500Y167864D01*
X362277D01*
X363670Y168441D01*
X364736Y169507D01*
X365313Y170900D01*
Y172408D01*
X364736Y173801D01*
X363670Y174867D01*
X362277Y175444D01*
X360769D01*
X359376Y174867D01*
X358310Y173801D01*
X357733Y172408D01*
Y170900D01*
X358116Y169974D01*
X357872Y169730D01*
X357450Y169100D01*
X357303Y168356D01*
Y167581D01*
X354202Y164480D01*
X353781Y163849D01*
X353633Y163106D01*
Y148425D01*
X353781Y147682D01*
X354202Y147052D01*
X354532Y146721D01*
Y140934D01*
X342626Y129029D01*
X342205Y128399D01*
X342057Y127656D01*
Y127428D01*
X341763Y127231D01*
X340278Y127216D01*
X340278Y127216D01*
X338554Y128940D01*
X338782Y129721D01*
X339035Y130256D01*
X340317Y130787D01*
X341383Y131853D01*
X341960Y133246D01*
Y134754D01*
X341383Y136147D01*
X340317Y137213D01*
X338924Y137790D01*
X337416D01*
X337095Y137657D01*
X336332Y138420D01*
X335702Y138841D01*
X334959Y138989D01*
X334498D01*
X334169Y139318D01*
X333539Y139739D01*
X332796Y139887D01*
X322515D01*
X319669Y142733D01*
X319779Y144419D01*
X320213Y144853D01*
X320790Y146246D01*
Y147754D01*
X320213Y149147D01*
X319147Y150213D01*
X318488Y150486D01*
Y162741D01*
X320373Y164627D01*
X320373Y164627D01*
X320794Y165257D01*
X320942Y166000D01*
Y169240D01*
X322515Y170813D01*
X333833D01*
X334576Y170961D01*
X335206Y171381D01*
X339182Y175357D01*
X339603Y175987D01*
X339751Y176731D01*
X339751Y176731D01*
Y176873D01*
X340677Y177257D01*
X341743Y178323D01*
X342320Y179716D01*
Y181224D01*
X341743Y182617D01*
X342228Y183903D01*
X342915Y184244D01*
X343250Y184105D01*
X344750D01*
X345913Y184587D01*
X346395Y185750D01*
Y193650D01*
X346338Y193788D01*
X347187Y195058D01*
X348813D01*
X349662Y193788D01*
D02*
G37*
G36*
X275688Y147722D02*
X276318Y147301D01*
X277061Y147153D01*
X277580Y146088D01*
Y141730D01*
X285720D01*
Y141730D01*
X286280D01*
Y141730D01*
X294420D01*
Y146323D01*
X295504Y147408D01*
X297222D01*
X298070Y146138D01*
X298055Y146100D01*
Y144600D01*
X298536Y143437D01*
X298536Y143263D01*
X298055Y142100D01*
Y140600D01*
X298070Y140562D01*
X297222Y139292D01*
X297157D01*
X296414Y139144D01*
X295784Y138723D01*
X294003Y136942D01*
X289350D01*
X288607Y136794D01*
X287977Y136373D01*
X287908Y136270D01*
X285280D01*
Y128308D01*
X284875Y127557D01*
X284201Y127270D01*
X280874D01*
X280650Y127315D01*
X280427Y127270D01*
X276580D01*
Y127270D01*
X275821Y126762D01*
X275754Y126790D01*
X274246D01*
X272853Y126213D01*
X271787Y125147D01*
X271210Y123754D01*
Y122246D01*
X271787Y120853D01*
X272853Y119787D01*
X274246Y119210D01*
X275754D01*
X275821Y119238D01*
X276580Y118730D01*
Y118730D01*
X278336D01*
Y114350D01*
X278512Y113464D01*
X279014Y112713D01*
X281917Y109810D01*
X275377Y103270D01*
X270710D01*
Y103270D01*
X269549Y103532D01*
X269549Y152201D01*
X270722Y152687D01*
X275688Y147722D01*
D02*
G37*
G36*
X380730Y124350D02*
X385997D01*
X388396Y121951D01*
Y117375D01*
X387497Y116477D01*
X386920Y115084D01*
Y113576D01*
X387497Y112183D01*
X387826Y111854D01*
X387300Y110584D01*
X380650D01*
X379765Y110408D01*
X379014Y109907D01*
X376377Y107270D01*
X372647D01*
Y122043D01*
X372647Y122043D01*
X372499Y122786D01*
X372078Y123416D01*
X372078Y123416D01*
X369713Y125781D01*
X370199Y126955D01*
X376300D01*
X377393Y127408D01*
X380730D01*
Y124350D01*
D02*
G37*
G36*
X383774Y141731D02*
X383774Y141731D01*
X384404Y141310D01*
X385148Y141162D01*
X386805D01*
X396923Y131044D01*
Y105997D01*
X395653Y105612D01*
X395637Y105637D01*
X391906Y109367D01*
X392184Y110838D01*
X392857Y111117D01*
X393923Y112183D01*
X394500Y113576D01*
Y115084D01*
X393923Y116477D01*
X393025Y117375D01*
Y122910D01*
X392848Y123796D01*
X392347Y124546D01*
X389270Y127623D01*
Y132290D01*
X380730D01*
Y131292D01*
X378778D01*
X377929Y132562D01*
X377945Y132600D01*
Y134100D01*
X377463Y135263D01*
X377463Y135437D01*
X377945Y136600D01*
Y138100D01*
X377463Y139263D01*
X377463Y139437D01*
X377945Y140600D01*
Y142100D01*
X377463Y143263D01*
X377463Y143437D01*
X377945Y144600D01*
Y145764D01*
X378942Y146343D01*
X379118Y146387D01*
X383774Y141731D01*
D02*
G37*
G36*
X354206Y109892D02*
X354627Y109262D01*
X359268Y104621D01*
Y98216D01*
X359063Y98131D01*
X357997Y97065D01*
X357420Y95672D01*
Y94164D01*
X357997Y92771D01*
X359063Y91705D01*
X360456Y91128D01*
X361964D01*
X363357Y91705D01*
X364423Y92771D01*
X365000Y94164D01*
Y95672D01*
X364423Y97065D01*
X363357Y98131D01*
X363152Y98216D01*
Y100108D01*
X364422Y100667D01*
X365526Y100210D01*
X367034D01*
X367377Y100352D01*
X368096Y99276D01*
X367877Y99056D01*
X367455Y98426D01*
X367308Y97682D01*
Y96520D01*
X366480D01*
Y88730D01*
X372020D01*
Y88730D01*
X372980D01*
Y88730D01*
X378520D01*
Y96520D01*
X378030D01*
Y98730D01*
X379650D01*
Y103997D01*
X381609Y105956D01*
X388771D01*
X391685Y103041D01*
Y101645D01*
X391227Y101187D01*
X390650Y99794D01*
Y98286D01*
X390840Y97828D01*
X389992Y96558D01*
X389615D01*
X389427Y96520D01*
X385980D01*
Y88730D01*
X391520D01*
Y92673D01*
X398121D01*
X398181Y92685D01*
X399451Y91802D01*
Y16056D01*
X385944Y2549D01*
X285056D01*
X269549Y18056D01*
Y40468D01*
X270819Y40730D01*
X271790D01*
X273006Y40439D01*
X273299Y38968D01*
X274132Y37721D01*
X276341Y35512D01*
X276341Y35512D01*
X277588Y34679D01*
X279059Y34386D01*
X304178D01*
X321282Y17282D01*
X321282Y17282D01*
X322529Y16449D01*
X324000Y16156D01*
X324000Y16156D01*
X335000D01*
X335271Y16210D01*
X335754D01*
X336200Y16395D01*
X336471Y16449D01*
X336701Y16602D01*
X337147Y16787D01*
X337488Y17128D01*
X337718Y17282D01*
X337872Y17512D01*
X338213Y17853D01*
X338398Y18299D01*
X338551Y18529D01*
X338605Y18800D01*
X338790Y19246D01*
Y19729D01*
X338844Y20000D01*
X338790Y20271D01*
Y20754D01*
X338605Y21200D01*
X338551Y21471D01*
X338398Y21701D01*
X338213Y22147D01*
X337872Y22488D01*
X337718Y22718D01*
X337488Y22871D01*
X337147Y23213D01*
X336701Y23398D01*
X336471Y23551D01*
X336200Y23605D01*
X335754Y23790D01*
X335271D01*
X335000Y23844D01*
X325592D01*
X313946Y35490D01*
X313948Y35512D01*
X316416Y37980D01*
X319520D01*
Y57520D01*
X319094D01*
Y62750D01*
X319094Y62750D01*
X318801Y64221D01*
X317968Y65468D01*
X317270Y66166D01*
X317270Y68720D01*
X317270Y69990D01*
Y71408D01*
X318730D01*
Y69280D01*
X327270D01*
Y77420D01*
X322942D01*
Y80702D01*
X323147Y80787D01*
X324213Y81853D01*
X324790Y83246D01*
Y84754D01*
X324213Y86147D01*
X323147Y87213D01*
X321754Y87790D01*
X320246D01*
X318853Y87213D01*
X317787Y86147D01*
X317210Y84754D01*
Y83246D01*
X317787Y81853D01*
X318853Y80787D01*
X319058Y80702D01*
Y77420D01*
X318730D01*
Y75292D01*
X317270D01*
Y77420D01*
X308730D01*
Y69990D01*
X308730Y69280D01*
X307786Y68494D01*
X297462D01*
Y69190D01*
X289334D01*
Y53442D01*
X297462D01*
Y60806D01*
X308730D01*
Y60580D01*
X311406D01*
Y57520D01*
X310980D01*
Y43416D01*
X309638Y42074D01*
X305770D01*
X305770Y42074D01*
X305770Y42074D01*
X281801D01*
X280694Y42530D01*
X280401Y44001D01*
X279568Y45248D01*
X279568Y45248D01*
X278650Y46166D01*
Y49270D01*
X278524D01*
Y53442D01*
X278666D01*
Y69190D01*
X270819D01*
X270538Y69190D01*
X269549Y69868D01*
Y76132D01*
X270819Y76810D01*
X278666D01*
Y87412D01*
X279572Y87787D01*
X280638Y88853D01*
X281215Y90246D01*
Y91754D01*
X280638Y93147D01*
X279572Y94213D01*
X279571Y94213D01*
X279236Y94378D01*
X278650Y94730D01*
Y99997D01*
X286434Y107781D01*
X296730D01*
Y107350D01*
X305270D01*
Y107781D01*
X306730D01*
Y107350D01*
X315270D01*
Y107781D01*
X321730D01*
Y107350D01*
X330270D01*
Y107781D01*
X331730D01*
Y107350D01*
X340270D01*
Y107350D01*
X341492Y107235D01*
X344686Y104041D01*
Y80380D01*
X344862Y79494D01*
X345363Y78744D01*
X352730Y71377D01*
Y66710D01*
X357997D01*
X360969Y63738D01*
X361719Y63237D01*
X362605Y63061D01*
X366480D01*
Y61480D01*
X370297D01*
Y60199D01*
X370487Y59741D01*
X369638Y58471D01*
X358970D01*
X357913Y59528D01*
X357282Y59949D01*
X356539Y60097D01*
X355821D01*
X350080Y65838D01*
X349450Y66259D01*
X348707Y66407D01*
X338167D01*
X338167Y66407D01*
X337424Y66259D01*
X336794Y65838D01*
X332768Y61812D01*
X332347Y61182D01*
X332200Y60447D01*
X329273Y57520D01*
X323480D01*
Y37980D01*
X323567D01*
X324416Y36710D01*
X324210Y36214D01*
Y34706D01*
X324787Y33313D01*
X325853Y32247D01*
X327246Y31670D01*
X328754D01*
X330147Y32247D01*
X331213Y33313D01*
X331790Y34706D01*
Y36214D01*
X331585Y36710D01*
X332020Y37980D01*
X332020D01*
Y54773D01*
X334710Y57463D01*
X335980Y56937D01*
Y37980D01*
X341247D01*
X345988Y33238D01*
X346739Y32737D01*
X347625Y32561D01*
X372877D01*
X377574Y27864D01*
X378324Y27362D01*
X379210Y27186D01*
X382230D01*
Y24730D01*
X393770D01*
Y34270D01*
X382230D01*
Y31815D01*
X380169D01*
X375472Y36512D01*
X374721Y37013D01*
X373835Y37190D01*
X348583D01*
X344520Y41253D01*
Y57520D01*
X344433D01*
X343585Y58790D01*
X343790Y59286D01*
Y60794D01*
X343600Y61253D01*
X344449Y62523D01*
X347902D01*
X353643Y56782D01*
X353643Y56782D01*
X354273Y56361D01*
X355017Y56213D01*
X355735D01*
X356792Y55155D01*
X356793Y55155D01*
X357423Y54734D01*
X358166Y54586D01*
X358166Y54586D01*
X375920D01*
X376663Y54734D01*
X377293Y55155D01*
X379038Y56899D01*
X380308Y56373D01*
Y50250D01*
X380456Y49507D01*
X380877Y48876D01*
X382193Y47560D01*
Y47365D01*
X382230Y47177D01*
Y39730D01*
X393770D01*
Y49270D01*
X385821D01*
X385508Y49738D01*
X384193Y51054D01*
Y61480D01*
X385020D01*
Y69270D01*
X379790D01*
X379480Y69270D01*
Y69270D01*
X378520D01*
Y69270D01*
X373290D01*
X372980Y69270D01*
Y69270D01*
X372020D01*
Y69270D01*
X366480D01*
Y67689D01*
X363564D01*
X361270Y69983D01*
Y74650D01*
X356003D01*
X349314Y81339D01*
Y85666D01*
X350584Y86484D01*
X351246Y86210D01*
X352754D01*
X354147Y86787D01*
X355213Y87853D01*
X355790Y89246D01*
Y90754D01*
X355213Y92147D01*
X354147Y93213D01*
X353908Y93312D01*
Y94425D01*
X353760Y95168D01*
X353339Y95798D01*
X352879Y96258D01*
Y110052D01*
X354149Y110177D01*
X354206Y109892D01*
D02*
G37*
%LPC*%
G36*
X360754Y235790D02*
X359246D01*
X357853Y235213D01*
X356787Y234147D01*
X356210Y232754D01*
Y231246D01*
X356787Y229853D01*
X357853Y228787D01*
X359246Y228210D01*
X360754D01*
X362147Y228787D01*
X363213Y229853D01*
X363790Y231246D01*
Y232754D01*
X363213Y234147D01*
X362147Y235213D01*
X360754Y235790D01*
D02*
G37*
G36*
X297462Y92558D02*
X289334D01*
Y76810D01*
X297462D01*
Y92558D01*
D02*
G37*
%LPD*%
D10*
X309848Y165000D02*
X320508Y175660D01*
X295420Y169316D02*
X298823Y165913D01*
X321660Y175660D02*
X322418Y176418D01*
X298823Y165913D02*
X299736Y165000D01*
X300800D02*
X309848D01*
X320508Y175660D02*
X321660D01*
X331418Y176598D02*
X332000Y177180D01*
X326596Y176598D02*
X331418D01*
X322418Y176418D02*
X326416D01*
X326596Y176598D01*
X375715Y92660D02*
Y103335D01*
X380650Y108270D01*
X375680Y103300D02*
X375715Y103335D01*
X394000Y99480D02*
X394440Y99040D01*
X394000Y99480D02*
Y104000D01*
X389730Y108270D02*
X394000Y104000D01*
X375680Y103000D02*
Y103300D01*
X380650Y108270D02*
X389730D01*
X390710Y114330D02*
Y122910D01*
X386000Y127620D02*
Y128000D01*
Y127620D02*
X390710Y122910D01*
X328830Y199820D02*
X330000Y200990D01*
Y204680D01*
X328830Y199156D02*
Y199820D01*
X371000Y236000D02*
X381001Y246000D01*
X371000Y187000D02*
Y236000D01*
X381001Y246000D02*
X382000D01*
X337000Y111000D02*
Y112000D01*
X285475Y110095D02*
X336905D01*
X357000Y70000D02*
X357980D01*
X337000Y111000D02*
X338000Y110000D01*
X342000D01*
X347000Y105000D01*
Y80380D02*
X356700Y70680D01*
X347000Y80380D02*
Y105000D01*
X356700Y70680D02*
X357000D01*
X362605Y65375D02*
X369250D01*
X357980Y70000D02*
X362605Y65375D01*
X274641Y91000D02*
Y98641D01*
X274000Y88000D02*
X277000Y91000D01*
X277425D01*
X280650Y123000D02*
Y125000D01*
Y114350D02*
Y123000D01*
X275000Y123000D02*
X280000D01*
X280960Y186000D02*
X281620D01*
X290320Y177000D02*
Y177300D01*
X281620Y186000D02*
X290320Y177300D01*
X309350Y213350D02*
X317000D01*
X315452Y224908D02*
X323270Y217090D01*
X302720Y231406D02*
Y231990D01*
X309000Y213000D02*
Y225126D01*
X296440Y238270D02*
X302720Y231990D01*
X323270Y209610D02*
Y217090D01*
X302720Y231406D02*
X309000Y225126D01*
X306025Y251425D02*
X310600Y256000D01*
X313843Y224908D02*
X315452D01*
X306025Y232726D02*
Y251425D01*
Y232726D02*
X313843Y224908D01*
X283270Y238270D02*
X296440D01*
X295420Y170424D02*
Y171600D01*
Y169316D02*
Y170424D01*
X293087Y173933D02*
X295420Y171600D01*
X290320Y176700D02*
X293087Y173933D01*
X299736Y165000D02*
X300800D01*
X290320Y176700D02*
Y177000D01*
X309000Y213000D02*
X309350Y213350D01*
X276750Y233250D02*
X278250D01*
X283270Y238270D01*
X375715Y92660D02*
X375750Y92625D01*
X374669Y63169D02*
X376000Y64500D01*
X374669Y61535D02*
Y63169D01*
X374087Y60953D02*
X374669Y61535D01*
X376000Y64500D02*
Y65000D01*
X340000Y48000D02*
X340250Y47750D01*
X340000Y48000D02*
Y60040D01*
X339500Y41500D02*
X340250Y42250D01*
X373835Y34875D02*
X379210Y29500D01*
X347625Y34875D02*
X373835D01*
X379210Y29500D02*
X388000D01*
X340250Y42250D02*
Y47750D01*
X340000Y41000D02*
X341500D01*
X347625Y34875D01*
X274680Y99300D02*
X285475Y110095D01*
X274641Y98641D02*
X275000Y99000D01*
X274680Y99000D02*
Y99300D01*
X336905Y110095D02*
X337000Y110000D01*
X319000Y205450D02*
X320000Y206450D01*
X319000Y204000D02*
Y205450D01*
X316000Y203000D02*
X317000Y204000D01*
X320110Y206450D02*
X323270Y209610D01*
X320000Y206450D02*
X320110D01*
X309000Y203000D02*
X310850D01*
X312000Y201850D01*
Y189700D02*
Y201850D01*
X316000Y189700D02*
Y203000D01*
X280650Y114350D02*
X285000Y110000D01*
D13*
X316545Y147455D02*
X317000Y147000D01*
X316545Y163545D02*
X319000Y166000D01*
X316545Y147455D02*
Y163545D01*
X319000Y166000D02*
Y170044D01*
X321711Y172755D01*
X299355Y166445D02*
X300268Y165532D01*
X300800Y165000D01*
X321711Y172755D02*
X333833D01*
X327983Y182049D02*
Y187983D01*
X333833Y172755D02*
X337809Y176731D01*
X327983Y187983D02*
X328000Y188000D01*
X327967Y182033D02*
X327983Y182049D01*
X337809Y179749D02*
X338530Y180470D01*
X337809Y176731D02*
Y179749D01*
X356000Y110636D02*
X361210Y105426D01*
X350937Y111677D02*
X352000Y112741D01*
X350937Y95454D02*
X351965Y94425D01*
Y90035D02*
Y94425D01*
X361210Y94918D02*
Y105426D01*
X350937Y95454D02*
Y111677D01*
X351965Y90035D02*
X352000Y90000D01*
X389615Y94615D02*
X398121D01*
X387610Y143104D02*
X398865Y131849D01*
Y95359D02*
Y131849D01*
X398121Y94615D02*
X398865Y95359D01*
X388750Y93750D02*
X389615Y94615D01*
X388750Y92625D02*
Y93750D01*
X338006Y134000D02*
X338170D01*
X334959Y137047D02*
X338006Y134000D01*
X333694Y137047D02*
X334959D01*
X332796Y137945D02*
X333694Y137047D01*
X321711Y137945D02*
X332796D01*
X336060Y128687D02*
X338905Y125843D01*
X330983Y128687D02*
X336060D01*
X326835Y132835D02*
X330983Y128687D01*
X318801Y134611D02*
X326055Y127357D01*
X326905Y125295D02*
Y126317D01*
X326055Y127167D02*
Y127357D01*
Y127167D02*
X326905Y126317D01*
X311640Y128990D02*
X312660D01*
X312361Y134793D02*
Y137279D01*
X314545Y127105D02*
X317642D01*
X319635Y121365D02*
X320000Y121000D01*
X319635Y121365D02*
Y124565D01*
X318905Y125295D02*
X319635Y124565D01*
X312361Y134793D02*
X316968Y130186D01*
X311640Y138000D02*
X312361Y137279D01*
X312660Y128990D02*
X314545Y127105D01*
X318561Y130186D02*
X322905Y125843D01*
X316968Y130186D02*
X318561D01*
X317642Y127105D02*
X318905Y125843D01*
X322905Y125295D02*
X323635Y124565D01*
Y121365D02*
Y124565D01*
X318905Y125295D02*
Y125843D01*
X322905Y125295D02*
Y125843D01*
X323635Y121365D02*
X324000Y121000D01*
X309807Y142425D02*
X317231D01*
X303650Y141350D02*
X304015Y141715D01*
X309097D01*
X309807Y142425D01*
X327635Y123365D02*
X328000Y123000D01*
X327635Y123365D02*
Y124565D01*
X326905Y125295D02*
X327635Y124565D01*
X335405Y183595D02*
X338530Y180470D01*
X338530D01*
X334357Y183595D02*
X335405D01*
X383670Y129350D02*
X384000Y129680D01*
X384300D02*
X385990Y127990D01*
X385300Y128320D02*
X386000Y127620D01*
X373000Y129000D02*
X373350Y129350D01*
X385000Y128320D02*
X385300D01*
X375447Y154000D02*
X380083Y149365D01*
Y148169D02*
X385148Y143104D01*
X387610D01*
X380083Y148169D02*
Y149365D01*
X352000Y112741D02*
Y118000D01*
X356000Y110636D02*
Y120000D01*
X344000Y122000D02*
Y127656D01*
X356474Y140130D01*
X332000Y185952D02*
Y187000D01*
Y185952D02*
X334357Y183595D01*
X384000Y129680D02*
X384300D01*
X374000Y154000D02*
X375447D01*
X361523Y170634D02*
Y171654D01*
X359245Y168356D02*
X361523Y170634D01*
X355575Y163106D02*
X359245Y166776D01*
Y168356D01*
X382680Y166680D02*
X383000Y167000D01*
X382680Y166000D02*
Y166680D01*
X373350Y129350D02*
X383670D01*
X370705Y99137D02*
Y122043D01*
X369250Y97682D02*
X370705Y99137D01*
X366245Y126503D02*
X370705Y122043D01*
X366228Y104000D02*
X366280D01*
X369250Y94615D02*
Y97682D01*
X360000Y110228D02*
X366228Y104000D01*
X270595Y206853D02*
X280226Y216484D01*
X270595Y155561D02*
Y206853D01*
Y155561D02*
X277061Y149095D01*
X293087Y173933D02*
Y174635D01*
Y172757D02*
Y173933D01*
X295420Y170424D02*
X295947Y169897D01*
X293087Y172757D02*
X295420Y170424D01*
X330990Y200990D02*
X336000Y195980D01*
X327750Y50250D02*
X328000Y50000D01*
X327000Y51000D02*
X327750Y50250D01*
Y53250D01*
X328000Y35460D02*
Y50000D01*
X378652Y60652D02*
X382000Y64000D01*
X378652Y59261D02*
Y60652D01*
X358166Y56528D02*
X375920D01*
X378652Y59261D01*
X356539Y58155D02*
X358166Y56528D01*
X327750Y53250D02*
X334141Y59641D01*
Y60439D01*
X355017Y58155D02*
X356539D01*
X334141Y60439D02*
X338167Y64465D01*
X348707D02*
X355017Y58155D01*
X338167Y64465D02*
X348707D01*
X382000Y64000D02*
X382250Y63750D01*
X384135Y47365D02*
X387000Y44500D01*
X382250Y50250D02*
X384135Y48365D01*
X387000Y44500D02*
X388000D01*
X384135Y47365D02*
Y48365D01*
X382250Y50250D02*
Y63750D01*
X321000Y181000D02*
X324000Y184000D01*
Y187000D01*
X321000Y75000D02*
X321500Y74500D01*
X320635Y73350D02*
X321000Y73715D01*
X313000Y73350D02*
X320635D01*
X321000Y73715D02*
Y74000D01*
Y75000D02*
Y84000D01*
X317231Y142425D02*
X321711Y137945D01*
X292150Y165000D02*
X292515Y164635D01*
Y163631D02*
X298619Y157527D01*
X303473D01*
X291146Y165000D02*
X292150D01*
X303473Y157527D02*
X303850Y157150D01*
X292515Y163631D02*
Y164635D01*
X295947Y169305D02*
X298807Y166445D01*
X295947Y169305D02*
Y169897D01*
X298807Y166445D02*
X299355D01*
X300800Y165000D02*
X301000D01*
X292722Y175000D02*
X293087Y174635D01*
X338905Y125295D02*
Y125843D01*
X340000Y124000D02*
Y124200D01*
X338905Y125295D02*
X340000Y124200D01*
X364000Y114895D02*
X366000Y112895D01*
Y112000D02*
Y112895D01*
X364000Y114895D02*
Y119000D01*
X360000Y110228D02*
Y121000D01*
X369000Y94000D02*
Y94365D01*
X369250Y94615D01*
X368055Y148255D02*
X368785Y148985D01*
X371985D01*
X372350Y149350D01*
X366245Y126503D02*
Y146993D01*
X360000Y140064D02*
Y161000D01*
X348000Y124000D02*
Y128064D01*
X360000Y140064D01*
X355575Y148425D02*
X356474Y147526D01*
Y140130D02*
Y147526D01*
X355575Y148425D02*
Y163106D01*
X336000Y191000D02*
Y195980D01*
X356442Y206347D02*
X359095Y209000D01*
X356442Y202248D02*
Y206347D01*
X359095Y209000D02*
X363000D01*
X344744Y197000D02*
X351194D01*
X344000Y193000D02*
Y196256D01*
X344744Y197000D01*
X351194D02*
X356442Y202248D01*
X340000Y192000D02*
Y196000D01*
X339000Y197000D02*
Y209000D01*
Y197000D02*
X340000Y196000D01*
X329000Y204680D02*
X329300D01*
X281984Y216484D02*
X290500Y225000D01*
X280226Y216484D02*
X281984D01*
X277061Y149095D02*
X279906D01*
X280650Y148351D01*
Y144000D02*
Y148351D01*
X290500Y225000D02*
X291000D01*
X302000Y153000D02*
X303000Y154000D01*
X297000Y153000D02*
X302000D01*
X296000Y154000D02*
X297000Y153000D01*
X289350Y154000D02*
X296000D01*
X291515Y146365D02*
X291715D01*
X294700Y149350D01*
X290350Y144000D02*
Y144200D01*
X289350D02*
X291515Y146365D01*
X294700Y149350D02*
X300650D01*
X301000Y149000D01*
X289000Y132000D02*
X289350Y131650D01*
X294807Y135000D02*
X297157Y137350D01*
X300650D02*
X301000Y137000D01*
X297157Y137350D02*
X300650D01*
X289350Y125000D02*
Y134650D01*
Y135000D02*
X294807D01*
X367507Y148255D02*
X368055D01*
X366245Y146993D02*
X367507Y148255D01*
X326000Y111000D02*
X328000Y113000D01*
X372350Y165350D02*
X382350D01*
X336000Y112000D02*
Y121000D01*
X328000Y113000D02*
X330000D01*
X332000Y115000D02*
Y121000D01*
X330000Y113000D02*
X332000Y115000D01*
X311000Y111320D02*
Y116800D01*
X313365Y113365D02*
Y115165D01*
X312000Y112000D02*
X313365Y113365D01*
X316000Y117800D02*
Y121000D01*
X313365Y115165D02*
X316000Y117800D01*
X301000Y128985D02*
X301365Y129350D01*
X301000Y112000D02*
Y128985D01*
X301365Y129350D02*
X303650D01*
X312000Y117800D02*
Y120000D01*
X311000Y116800D02*
X312000Y117800D01*
D15*
X273350Y163502D02*
X276972Y159880D01*
X276320Y172530D02*
Y188014D01*
Y172530D02*
X280650Y168200D01*
X276320Y188014D02*
X297620Y209314D01*
X273350Y163502D02*
Y203350D01*
X280650Y165200D02*
Y168200D01*
X273350Y203350D02*
X279000Y209000D01*
X295148Y231350D02*
X297620Y228878D01*
Y209314D02*
Y228878D01*
X293000Y233000D02*
X294650Y231350D01*
X295148D01*
X276972Y159880D02*
X279654D01*
X280650Y158884D01*
D18*
X281650Y157000D02*
D03*
X290350D02*
D03*
X290350Y146000D02*
D03*
X290350Y167000D02*
D03*
X289350Y132000D02*
D03*
X280650D02*
D03*
X289350Y123000D02*
D03*
X280650D02*
D03*
X281650Y146000D02*
D03*
X281650Y167000D02*
D03*
D20*
X303650Y129350D02*
D03*
Y133350D02*
D03*
Y137350D02*
D03*
Y141350D02*
D03*
Y145350D02*
D03*
Y149350D02*
D03*
Y153350D02*
D03*
Y157350D02*
D03*
Y161350D02*
D03*
Y165350D02*
D03*
Y169350D02*
D03*
Y173350D02*
D03*
Y177350D02*
D03*
Y181350D02*
D03*
X372350D02*
D03*
Y177350D02*
D03*
Y173350D02*
D03*
Y169350D02*
D03*
Y165350D02*
D03*
Y161350D02*
D03*
Y157350D02*
D03*
Y153350D02*
D03*
Y149350D02*
D03*
Y145350D02*
D03*
Y141350D02*
D03*
Y137350D02*
D03*
Y133350D02*
D03*
Y129350D02*
D03*
D21*
X364000Y121000D02*
D03*
X360000D02*
D03*
X356000D02*
D03*
X352000D02*
D03*
X348000D02*
D03*
X344000D02*
D03*
X340000D02*
D03*
X336000D02*
D03*
X332000D02*
D03*
X328000D02*
D03*
X324000D02*
D03*
X320000D02*
D03*
X316000D02*
D03*
X312000D02*
D03*
Y189700D02*
D03*
X316000D02*
D03*
X320000D02*
D03*
X324000D02*
D03*
X328000D02*
D03*
X332000D02*
D03*
X336000D02*
D03*
X340000D02*
D03*
X344000D02*
D03*
X348000D02*
D03*
X352000D02*
D03*
X356000D02*
D03*
X360000D02*
D03*
X364000D02*
D03*
D22*
X281680Y177000D02*
D03*
X290320D02*
D03*
X375680Y103000D02*
D03*
X384320D02*
D03*
X382680Y166000D02*
D03*
X391320D02*
D03*
X274680Y99000D02*
D03*
X283320D02*
D03*
X274680Y45000D02*
D03*
X283320D02*
D03*
D23*
X301000Y102680D02*
D03*
Y111320D02*
D03*
X326000D02*
D03*
Y102680D02*
D03*
X330000Y213320D02*
D03*
Y204680D02*
D03*
X357000Y70680D02*
D03*
Y79320D02*
D03*
X311000Y111320D02*
D03*
Y102680D02*
D03*
X385000Y128320D02*
D03*
Y119680D02*
D03*
X336000Y111320D02*
D03*
Y102680D02*
D03*
D24*
X361400Y256000D02*
D03*
D25*
X310600D02*
D03*
X336000D02*
D03*
D26*
X318000Y204650D02*
D03*
X309000D02*
D03*
X323000Y73350D02*
D03*
Y64650D02*
D03*
X313000D02*
D03*
Y73350D02*
D03*
X318000Y213350D02*
D03*
X309000D02*
D03*
D27*
X369250Y92625D02*
D03*
X375750D02*
D03*
X382250D02*
D03*
X388750D02*
D03*
X369250Y65375D02*
D03*
X388750D02*
D03*
X375750D02*
D03*
X382250D02*
D03*
D28*
X276750Y224750D02*
D03*
X291250D02*
D03*
D29*
X276750Y233250D02*
D03*
X291250D02*
D03*
D30*
X274602Y84684D02*
D03*
X293398D02*
D03*
Y61316D02*
D03*
X284000D02*
D03*
X274602D02*
D03*
D31*
X371250Y15750D02*
D03*
X296750D02*
D03*
D32*
X352750Y47750D02*
D03*
X340250D02*
D03*
X315250D02*
D03*
X327750D02*
D03*
D33*
X388000Y44500D02*
D03*
Y29500D02*
D03*
D34*
X363000Y209000D02*
D03*
X351000D02*
D03*
X339000D02*
D03*
D53*
X338000Y155350D02*
D03*
D54*
X379000Y79000D02*
D03*
D55*
X336000Y250000D02*
X336000Y250000D01*
X336000Y250000D02*
Y256000D01*
X311230Y38230D02*
X315000Y42000D01*
X305770Y38230D02*
X311230D01*
X315000Y42000D02*
Y43000D01*
X313000Y65000D02*
X315250Y62750D01*
X305770Y38230D02*
X324000Y20000D01*
X335000D01*
X279059Y38230D02*
X305770D01*
X274680Y44700D02*
Y45000D01*
Y44700D02*
X276850Y42530D01*
Y40439D02*
Y42530D01*
Y40439D02*
X279059Y38230D01*
X274000Y60000D02*
X274680Y59320D01*
Y45000D02*
Y59320D01*
X294650Y64650D02*
X313000D01*
X315250Y47750D02*
Y62750D01*
D56*
X357320Y79320D02*
X371680D01*
X357320D02*
X358000Y80000D01*
X384000Y119000D02*
X384660Y118340D01*
X384320Y103000D02*
X384660Y103340D01*
X384834Y149676D02*
Y150363D01*
X348000Y164000D02*
Y189700D01*
X388072Y153602D02*
Y157072D01*
X390250Y159250D01*
X384834Y150363D02*
X388072Y153602D01*
X283660Y64660D02*
Y98660D01*
X300000Y104000D02*
X301320Y102680D01*
X286700D02*
X301000D01*
X283000Y99000D02*
X283020D01*
X335700Y102680D02*
X336000Y102980D01*
Y103000D01*
X283000Y64000D02*
X283660Y64660D01*
X283020Y99000D02*
X286700Y102680D01*
X283320Y99000D02*
X283660Y98660D01*
X275290Y132000D02*
X280650D01*
X311301Y234224D02*
X316808D01*
X318335Y232698D01*
X310815Y234710D02*
X311301Y234224D01*
X318335Y232698D02*
X323302D01*
X342900Y226000D02*
X344000D01*
X330000D02*
X342900D01*
X361400Y244500D01*
X330900Y214000D02*
X342900Y226000D01*
X323302Y232698D02*
X330000Y226000D01*
X354500Y40500D02*
X361210D01*
X362000Y39710D01*
X352750Y42250D02*
X354500Y40500D01*
X352750Y42250D02*
Y47750D01*
X384000Y138320D02*
X384300D01*
X384000Y138000D02*
X384000Y138000D01*
X384000Y138000D02*
Y138320D01*
X301320Y102680D02*
X311000D01*
X328520Y95500D02*
X335700Y102680D01*
X336000D01*
X326000D02*
X335700D01*
X311000D02*
X326000D01*
X326982Y67968D02*
X328520Y69506D01*
Y95500D01*
X323000Y64650D02*
X323200D01*
X326518Y67968D01*
X326982D01*
X283660Y45340D02*
Y61340D01*
X283320Y45000D02*
X283660Y45340D01*
X283000Y62000D02*
X283660Y61340D01*
X371000Y11000D02*
X371250Y11250D01*
Y15750D01*
X296750Y11250D02*
X297000Y11000D01*
X296750Y11250D02*
Y15750D01*
X351000Y209000D02*
Y219000D01*
X390250Y164930D02*
X391320Y166000D01*
X390250Y159250D02*
Y164930D01*
X346000Y162000D02*
X348000Y164000D01*
X344000Y226000D02*
X351000Y219000D01*
X361400Y244500D02*
Y256000D01*
X387000Y79000D02*
X388750Y77250D01*
Y65375D02*
Y77250D01*
X371680Y79320D02*
X372000Y79000D01*
X382250Y79250D02*
Y92625D01*
X382000Y79000D02*
X382250Y79250D01*
Y100631D02*
X384000Y102380D01*
Y103000D01*
X382250Y92625D02*
Y100631D01*
D57*
X382000Y247000D02*
D03*
Y234500D02*
D03*
Y222000D02*
D03*
Y209500D02*
D03*
D58*
X317000Y147000D02*
D03*
X327967Y182033D02*
D03*
X332000Y177180D02*
D03*
X336000Y263000D02*
D03*
Y250000D02*
D03*
X361210Y94918D02*
D03*
X358000Y80000D02*
D03*
X352000Y90000D02*
D03*
X394440Y99040D02*
D03*
X390710Y114330D02*
D03*
X338170Y134000D02*
D03*
X326835Y132835D02*
D03*
X318801Y134611D02*
D03*
X311640Y128990D02*
D03*
Y138000D02*
D03*
X338530Y180470D02*
D03*
X384834Y149676D02*
D03*
X328830Y199156D02*
D03*
X371000Y187000D02*
D03*
X361523Y171654D02*
D03*
X383000Y167000D02*
D03*
X366280Y104000D02*
D03*
X277425Y91000D02*
D03*
X275000Y123000D02*
D03*
X275290Y132000D02*
D03*
X280960Y186000D02*
D03*
X317000Y213000D02*
D03*
X310815Y234710D02*
D03*
X282000Y177000D02*
D03*
X338000Y156000D02*
D03*
X362000Y39710D02*
D03*
X384000Y138000D02*
D03*
X311000Y102000D02*
D03*
X371000Y11000D02*
D03*
X328000Y35460D02*
D03*
X374087Y60953D02*
D03*
X340000Y60040D02*
D03*
X335000Y20000D02*
D03*
X360000Y232000D02*
D03*
X321000Y181000D02*
D03*
Y84000D02*
D03*
X366000Y112000D02*
D03*
X360000Y161000D02*
D03*
X309000Y204000D02*
D03*
X277000Y224000D02*
D03*
X279000Y209000D02*
D03*
D59*
X396000Y246000D02*
D03*
Y226000D02*
D03*
Y206000D02*
D03*
X391000Y256000D02*
D03*
Y196000D02*
D03*
Y16000D02*
D03*
X376000Y266000D02*
D03*
X381000Y256000D02*
D03*
Y116000D02*
D03*
X376000Y86000D02*
D03*
X381000Y16000D02*
D03*
X376000Y6000D02*
D03*
X366000Y26000D02*
D03*
Y6000D02*
D03*
X356000Y26000D02*
D03*
X361000Y16000D02*
D03*
X356000Y6000D02*
D03*
X351000Y216000D02*
D03*
X346000Y206000D02*
D03*
Y26000D02*
D03*
X351000Y16000D02*
D03*
X346000Y6000D02*
D03*
X336000Y146000D02*
D03*
Y86000D02*
D03*
X341000Y16000D02*
D03*
X336000Y6000D02*
D03*
X326000Y266000D02*
D03*
X331000Y156000D02*
D03*
X326000Y146000D02*
D03*
Y66000D02*
D03*
Y6000D02*
D03*
X321000Y256000D02*
D03*
Y156000D02*
D03*
Y96000D02*
D03*
X316000Y6000D02*
D03*
X306000Y86000D02*
D03*
Y46000D02*
D03*
Y26000D02*
D03*
X311000Y16000D02*
D03*
X306000Y6000D02*
D03*
X301000Y76000D02*
D03*
Y56000D02*
D03*
X296000Y46000D02*
D03*
Y26000D02*
D03*
X301000Y16000D02*
D03*
X296000Y6000D02*
D03*
X291000Y96000D02*
D03*
X286000Y46000D02*
D03*
Y26000D02*
D03*
X291000Y16000D02*
D03*
X286000Y6000D02*
D03*
M02*
