G04*
G04 #@! TF.GenerationSoftware,Altium Limited,Altium Designer,21.6.1 (37)*
G04*
G04 Layer_Color=8388736*
%FSLAX44Y44*%
%MOMM*%
G71*
G04*
G04 #@! TF.SameCoordinates,A3892E78-241B-427D-A5EC-4F0B57241F16*
G04*
G04*
G04 #@! TF.FilePolarity,Negative*
G04*
G01*
G75*
%ADD35R,0.6600X0.7000*%
%ADD36R,3.2000X3.2000*%
G04:AMPARAMS|DCode=37|XSize=0.94mm|YSize=0.3mm|CornerRadius=0.075mm|HoleSize=0mm|Usage=FLASHONLY|Rotation=180.000|XOffset=0mm|YOffset=0mm|HoleType=Round|Shape=RoundedRectangle|*
%AMROUNDEDRECTD37*
21,1,0.9400,0.1500,0,0,180.0*
21,1,0.7900,0.3000,0,0,180.0*
1,1,0.1500,-0.3950,0.0750*
1,1,0.1500,0.3950,0.0750*
1,1,0.1500,0.3950,-0.0750*
1,1,0.1500,-0.3950,-0.0750*
%
%ADD37ROUNDEDRECTD37*%
G04:AMPARAMS|DCode=38|XSize=0.3mm|YSize=0.94mm|CornerRadius=0.075mm|HoleSize=0mm|Usage=FLASHONLY|Rotation=180.000|XOffset=0mm|YOffset=0mm|HoleType=Round|Shape=RoundedRectangle|*
%AMROUNDEDRECTD38*
21,1,0.3000,0.7900,0,0,180.0*
21,1,0.1500,0.9400,0,0,180.0*
1,1,0.1500,-0.0750,0.3950*
1,1,0.1500,0.0750,0.3950*
1,1,0.1500,0.0750,-0.3950*
1,1,0.1500,-0.0750,-0.3950*
%
%ADD38ROUNDEDRECTD38*%
%ADD39R,0.6400X0.7000*%
%ADD40R,0.7000X0.6400*%
G04:AMPARAMS|DCode=41|XSize=1.3mm|YSize=3.6mm|CornerRadius=0.35mm|HoleSize=0mm|Usage=FLASHONLY|Rotation=180.000|XOffset=0mm|YOffset=0mm|HoleType=Round|Shape=RoundedRectangle|*
%AMROUNDEDRECTD41*
21,1,1.3000,2.9000,0,0,180.0*
21,1,0.6000,3.6000,0,0,180.0*
1,1,0.7000,-0.3000,1.4500*
1,1,0.7000,0.3000,1.4500*
1,1,0.7000,0.3000,-1.4500*
1,1,0.7000,-0.3000,-1.4500*
%
%ADD41ROUNDEDRECTD41*%
%ADD42R,1.3000X3.6000*%
%ADD43R,0.7000X0.6600*%
%ADD44R,2.5500X1.7500*%
%ADD45R,0.4000X0.6250*%
%ADD46R,0.9500X0.7500*%
%ADD47R,0.9500X0.6500*%
%ADD48R,0.6588X1.4208*%
%ADD49R,1.1000X2.8000*%
%ADD50R,0.7000X1.8000*%
%ADD51R,1.0000X0.8000*%
%ADD52R,0.5000X1.6000*%
D35*
X281650Y157000D02*
D03*
X290350D02*
D03*
X290350Y146000D02*
D03*
X290350Y167000D02*
D03*
X289350Y132000D02*
D03*
X280650D02*
D03*
X289350Y123000D02*
D03*
X280650D02*
D03*
X281650Y146000D02*
D03*
X281650Y167000D02*
D03*
D36*
X338000Y155350D02*
D03*
D37*
X303650Y129350D02*
D03*
Y133350D02*
D03*
Y137350D02*
D03*
Y141350D02*
D03*
Y145350D02*
D03*
Y149350D02*
D03*
Y153350D02*
D03*
Y157350D02*
D03*
Y161350D02*
D03*
Y165350D02*
D03*
Y169350D02*
D03*
Y173350D02*
D03*
Y177350D02*
D03*
Y181350D02*
D03*
X372350D02*
D03*
Y177350D02*
D03*
Y173350D02*
D03*
Y169350D02*
D03*
Y165350D02*
D03*
Y161350D02*
D03*
Y157350D02*
D03*
Y153350D02*
D03*
Y149350D02*
D03*
Y145350D02*
D03*
Y141350D02*
D03*
Y137350D02*
D03*
Y133350D02*
D03*
Y129350D02*
D03*
D38*
X364000Y121000D02*
D03*
X360000D02*
D03*
X356000D02*
D03*
X352000D02*
D03*
X348000D02*
D03*
X344000D02*
D03*
X340000D02*
D03*
X336000D02*
D03*
X332000D02*
D03*
X328000D02*
D03*
X324000D02*
D03*
X320000D02*
D03*
X316000D02*
D03*
X312000D02*
D03*
Y189700D02*
D03*
X316000D02*
D03*
X320000D02*
D03*
X324000D02*
D03*
X328000D02*
D03*
X332000D02*
D03*
X336000D02*
D03*
X340000D02*
D03*
X344000D02*
D03*
X348000D02*
D03*
X352000D02*
D03*
X356000D02*
D03*
X360000D02*
D03*
X364000D02*
D03*
D39*
X281680Y177000D02*
D03*
X290320D02*
D03*
X375680Y103000D02*
D03*
X384320D02*
D03*
X382680Y166000D02*
D03*
X391320D02*
D03*
X274680Y99000D02*
D03*
X283320D02*
D03*
X274680Y45000D02*
D03*
X283320D02*
D03*
D40*
X301000Y102680D02*
D03*
Y111320D02*
D03*
X326000D02*
D03*
Y102680D02*
D03*
X330000Y213320D02*
D03*
Y204680D02*
D03*
X357000Y70680D02*
D03*
Y79320D02*
D03*
X311000Y111320D02*
D03*
Y102680D02*
D03*
X385000Y128320D02*
D03*
Y119680D02*
D03*
X336000Y111320D02*
D03*
Y102680D02*
D03*
D41*
X361400Y256000D02*
D03*
D42*
X310600D02*
D03*
X336000D02*
D03*
D43*
X318000Y204650D02*
D03*
X309000D02*
D03*
X323000Y73350D02*
D03*
Y64650D02*
D03*
X313000D02*
D03*
Y73350D02*
D03*
X318000Y213350D02*
D03*
X309000D02*
D03*
D44*
X379000Y79000D02*
D03*
D45*
X369250Y92625D02*
D03*
X375750D02*
D03*
X382250D02*
D03*
X388750D02*
D03*
X369250Y65375D02*
D03*
X388750D02*
D03*
X375750D02*
D03*
X382250D02*
D03*
D46*
X276750Y224750D02*
D03*
X291250D02*
D03*
D47*
X276750Y233250D02*
D03*
X291250D02*
D03*
D48*
X274602Y84684D02*
D03*
X293398D02*
D03*
Y61316D02*
D03*
X284000D02*
D03*
X274602D02*
D03*
D49*
X371250Y15750D02*
D03*
X296750D02*
D03*
D50*
X352750Y47750D02*
D03*
X340250D02*
D03*
X315250D02*
D03*
X327750D02*
D03*
D51*
X388000Y44500D02*
D03*
Y29500D02*
D03*
D52*
X363000Y209000D02*
D03*
X351000D02*
D03*
X339000D02*
D03*
M02*
