G04*
G04 #@! TF.GenerationSoftware,Altium Limited,Altium Designer,21.6.1 (37)*
G04*
G04 Layer_Color=8421504*
%FSLAX44Y44*%
%MOMM*%
G71*
G04*
G04 #@! TF.SameCoordinates,A3892E78-241B-427D-A5EC-4F0B57241F16*
G04*
G04*
G04 #@! TF.FilePolarity,Positive*
G04*
G01*
G75*
%ADD18R,0.5600X0.6000*%
%ADD19R,1.9600X1.9600*%
G04:AMPARAMS|DCode=20|XSize=0.84mm|YSize=0.2mm|CornerRadius=0.025mm|HoleSize=0mm|Usage=FLASHONLY|Rotation=180.000|XOffset=0mm|YOffset=0mm|HoleType=Round|Shape=RoundedRectangle|*
%AMROUNDEDRECTD20*
21,1,0.8400,0.1500,0,0,180.0*
21,1,0.7900,0.2000,0,0,180.0*
1,1,0.0500,-0.3950,0.0750*
1,1,0.0500,0.3950,0.0750*
1,1,0.0500,0.3950,-0.0750*
1,1,0.0500,-0.3950,-0.0750*
%
%ADD20ROUNDEDRECTD20*%
G04:AMPARAMS|DCode=21|XSize=0.2mm|YSize=0.84mm|CornerRadius=0.025mm|HoleSize=0mm|Usage=FLASHONLY|Rotation=180.000|XOffset=0mm|YOffset=0mm|HoleType=Round|Shape=RoundedRectangle|*
%AMROUNDEDRECTD21*
21,1,0.2000,0.7900,0,0,180.0*
21,1,0.1500,0.8400,0,0,180.0*
1,1,0.0500,-0.0750,0.3950*
1,1,0.0500,0.0750,0.3950*
1,1,0.0500,0.0750,-0.3950*
1,1,0.0500,-0.0750,-0.3950*
%
%ADD21ROUNDEDRECTD21*%
%ADD22R,0.5400X0.6000*%
%ADD23R,0.6000X0.5400*%
G04:AMPARAMS|DCode=24|XSize=1.2mm|YSize=3.5mm|CornerRadius=0.3mm|HoleSize=0mm|Usage=FLASHONLY|Rotation=180.000|XOffset=0mm|YOffset=0mm|HoleType=Round|Shape=RoundedRectangle|*
%AMROUNDEDRECTD24*
21,1,1.2000,2.9000,0,0,180.0*
21,1,0.6000,3.5000,0,0,180.0*
1,1,0.6000,-0.3000,1.4500*
1,1,0.6000,0.3000,1.4500*
1,1,0.6000,0.3000,-1.4500*
1,1,0.6000,-0.3000,-1.4500*
%
%ADD24ROUNDEDRECTD24*%
%ADD25R,1.2000X3.5000*%
%ADD26R,0.6000X0.5600*%
%ADD27R,0.3000X0.5250*%
%ADD28R,0.8500X0.6500*%
%ADD29R,0.8500X0.5500*%
%ADD30R,0.5588X1.3208*%
%ADD31R,1.0000X2.7000*%
%ADD32R,0.6000X1.7000*%
%ADD33R,0.9000X0.7000*%
%ADD34R,0.4000X1.5000*%
G36*
X373500Y82250D02*
X384500D01*
Y75750D01*
X373500D01*
Y82250D01*
D02*
G37*
D18*
X281650Y157000D02*
D03*
X290350D02*
D03*
X290350Y146000D02*
D03*
X290350Y167000D02*
D03*
X289350Y132000D02*
D03*
X280650D02*
D03*
X289350Y123000D02*
D03*
X280650D02*
D03*
X281650Y146000D02*
D03*
X281650Y167000D02*
D03*
D19*
X338000Y155350D02*
D03*
D20*
X303650Y129350D02*
D03*
Y133350D02*
D03*
Y137350D02*
D03*
Y141350D02*
D03*
Y145350D02*
D03*
Y149350D02*
D03*
Y153350D02*
D03*
Y157350D02*
D03*
Y161350D02*
D03*
Y165350D02*
D03*
Y169350D02*
D03*
Y173350D02*
D03*
Y177350D02*
D03*
Y181350D02*
D03*
X372350D02*
D03*
Y177350D02*
D03*
Y173350D02*
D03*
Y169350D02*
D03*
Y165350D02*
D03*
Y161350D02*
D03*
Y157350D02*
D03*
Y153350D02*
D03*
Y149350D02*
D03*
Y145350D02*
D03*
Y141350D02*
D03*
Y137350D02*
D03*
Y133350D02*
D03*
Y129350D02*
D03*
D21*
X364000Y121000D02*
D03*
X360000D02*
D03*
X356000D02*
D03*
X352000D02*
D03*
X348000D02*
D03*
X344000D02*
D03*
X340000D02*
D03*
X336000D02*
D03*
X332000D02*
D03*
X328000D02*
D03*
X324000D02*
D03*
X320000D02*
D03*
X316000D02*
D03*
X312000D02*
D03*
Y189700D02*
D03*
X316000D02*
D03*
X320000D02*
D03*
X324000D02*
D03*
X328000D02*
D03*
X332000D02*
D03*
X336000D02*
D03*
X340000D02*
D03*
X344000D02*
D03*
X348000D02*
D03*
X352000D02*
D03*
X356000D02*
D03*
X360000D02*
D03*
X364000D02*
D03*
D22*
X281680Y177000D02*
D03*
X290320D02*
D03*
X375680Y103000D02*
D03*
X384320D02*
D03*
X382680Y166000D02*
D03*
X391320D02*
D03*
X274680Y99000D02*
D03*
X283320D02*
D03*
X274680Y45000D02*
D03*
X283320D02*
D03*
D23*
X301000Y102680D02*
D03*
Y111320D02*
D03*
X326000D02*
D03*
Y102680D02*
D03*
X330000Y213320D02*
D03*
Y204680D02*
D03*
X357000Y70680D02*
D03*
Y79320D02*
D03*
X311000Y111320D02*
D03*
Y102680D02*
D03*
X385000Y128320D02*
D03*
Y119680D02*
D03*
X336000Y111320D02*
D03*
Y102680D02*
D03*
D24*
X361400Y256000D02*
D03*
D25*
X310600D02*
D03*
X336000D02*
D03*
D26*
X318000Y204650D02*
D03*
X309000D02*
D03*
X323000Y73350D02*
D03*
Y64650D02*
D03*
X313000D02*
D03*
Y73350D02*
D03*
X318000Y213350D02*
D03*
X309000D02*
D03*
D27*
X369250Y92625D02*
D03*
X375750D02*
D03*
X382250D02*
D03*
X388750D02*
D03*
X369250Y65375D02*
D03*
X388750D02*
D03*
X375750D02*
D03*
X382250D02*
D03*
D28*
X276750Y224750D02*
D03*
X291250D02*
D03*
D29*
X276750Y233250D02*
D03*
X291250D02*
D03*
D30*
X274602Y84684D02*
D03*
X293398D02*
D03*
Y61316D02*
D03*
X284000D02*
D03*
X274602D02*
D03*
D31*
X371250Y15750D02*
D03*
X296750D02*
D03*
D32*
X352750Y47750D02*
D03*
X340250D02*
D03*
X315250D02*
D03*
X327750D02*
D03*
D33*
X388000Y44500D02*
D03*
Y29500D02*
D03*
D34*
X363000Y209000D02*
D03*
X351000D02*
D03*
X339000D02*
D03*
M02*
