G04*
G04 #@! TF.GenerationSoftware,Altium Limited,Altium Designer,21.6.1 (37)*
G04*
G04 Layer_Physical_Order=2*
G04 Layer_Color=16711680*
%FSLAX44Y44*%
%MOMM*%
G71*
G04*
G04 #@! TF.SameCoordinates,A3892E78-241B-427D-A5EC-4F0B57241F16*
G04*
G04*
G04 #@! TF.FilePolarity,Positive*
G04*
G01*
G75*
%ADD10C,0.2000*%
%ADD13C,0.1270*%
%ADD15C,0.1700*%
%ADD18R,0.5600X0.6000*%
%ADD22R,0.5400X0.6000*%
%ADD23R,0.6000X0.5400*%
G04:AMPARAMS|DCode=24|XSize=1.2mm|YSize=3.5mm|CornerRadius=0.3mm|HoleSize=0mm|Usage=FLASHONLY|Rotation=180.000|XOffset=0mm|YOffset=0mm|HoleType=Round|Shape=RoundedRectangle|*
%AMROUNDEDRECTD24*
21,1,1.2000,2.9000,0,0,180.0*
21,1,0.6000,3.5000,0,0,180.0*
1,1,0.6000,-0.3000,1.4500*
1,1,0.6000,0.3000,1.4500*
1,1,0.6000,0.3000,-1.4500*
1,1,0.6000,-0.3000,-1.4500*
%
%ADD24ROUNDEDRECTD24*%
%ADD25R,1.2000X3.5000*%
%ADD31R,1.0000X2.7000*%
%ADD32R,0.6000X1.7000*%
%ADD55C,0.5000*%
%ADD56C,0.2500*%
%ADD58C,0.5040*%
%ADD59C,0.5100*%
%ADD60R,0.7000X0.9000*%
%ADD61C,0.7500*%
%ADD62R,4.3000X3.4000*%
G04:AMPARAMS|DCode=63|XSize=1.04mm|YSize=0.44mm|CornerRadius=0.055mm|HoleSize=0mm|Usage=FLASHONLY|Rotation=90.000|XOffset=0mm|YOffset=0mm|HoleType=Round|Shape=RoundedRectangle|*
%AMROUNDEDRECTD63*
21,1,1.0400,0.3300,0,0,90.0*
21,1,0.9300,0.4400,0,0,90.0*
1,1,0.1100,0.1650,0.4650*
1,1,0.1100,0.1650,-0.4650*
1,1,0.1100,-0.1650,-0.4650*
1,1,0.1100,-0.1650,0.4650*
%
%ADD63ROUNDEDRECTD63*%
%ADD64R,1.7000X0.7000*%
G36*
X328730Y245291D02*
X326447D01*
X326447Y245291D01*
X324976Y244998D01*
X323729Y244165D01*
X299992Y220428D01*
X299159Y219181D01*
X298866Y217710D01*
X298866Y217710D01*
Y182290D01*
X298866Y182290D01*
X299159Y180819D01*
X299992Y179572D01*
X314282Y165282D01*
X314282Y165282D01*
X315529Y164449D01*
X317000Y164156D01*
X334758D01*
X334758Y164156D01*
X336230Y164449D01*
X337477Y165282D01*
X344271Y172076D01*
X344864Y172472D01*
X363548Y191156D01*
X368064D01*
X368526Y189886D01*
X367787Y189147D01*
X367210Y187754D01*
Y186246D01*
X367686Y185098D01*
Y181940D01*
X367862Y181054D01*
X368363Y180303D01*
X372670Y175997D01*
Y170730D01*
X377337D01*
X379533Y168534D01*
X379210Y167754D01*
Y166246D01*
X379787Y164853D01*
X380853Y163787D01*
X381544Y163501D01*
Y157800D01*
X381685Y157090D01*
X382088Y156488D01*
X382690Y156086D01*
X383400Y155945D01*
X385282D01*
X387455Y153772D01*
Y116376D01*
X386920Y115084D01*
Y113576D01*
X387042Y113283D01*
X386967Y113013D01*
X386175Y112056D01*
X383400D01*
X382690Y111915D01*
X382088Y111512D01*
X382084Y111508D01*
X378911D01*
X376390Y114029D01*
X375760Y114450D01*
X375017Y114598D01*
X368762D01*
X368147Y115213D01*
X366754Y115790D01*
X365246D01*
X363853Y115213D01*
X362787Y114147D01*
X362210Y112754D01*
X361300Y112056D01*
X358000D01*
X357290Y111915D01*
X356688Y111512D01*
X356285Y110910D01*
X356144Y110200D01*
Y100900D01*
X356285Y100190D01*
X356688Y99588D01*
X357290Y99186D01*
X358000Y99045D01*
X358546D01*
Y97614D01*
X357997Y97065D01*
X357420Y95672D01*
Y94164D01*
X357997Y92771D01*
X359063Y91705D01*
X360456Y91128D01*
X361964D01*
X362460Y91334D01*
X363730Y90485D01*
Y85230D01*
X367058D01*
Y84550D01*
X367206Y83807D01*
X367627Y83176D01*
X370360Y80443D01*
X369874Y79270D01*
X365580D01*
Y76942D01*
X324547D01*
X322390Y79099D01*
X322688Y80597D01*
X323147Y80787D01*
X324213Y81853D01*
X324790Y83246D01*
Y84754D01*
X324705Y84958D01*
X339408Y99661D01*
X340425Y99497D01*
X340843Y99300D01*
X341167Y98815D01*
X348508Y91473D01*
X348210Y90754D01*
Y89246D01*
X348787Y87853D01*
X349853Y86787D01*
X351246Y86210D01*
X352754D01*
X354147Y86787D01*
X355213Y87853D01*
X355790Y89246D01*
Y90754D01*
X355213Y92147D01*
X354147Y93213D01*
X352754Y93790D01*
X351685D01*
X344482Y100993D01*
Y125779D01*
X344537Y126055D01*
Y150985D01*
X345179Y151626D01*
X345915Y151773D01*
X346545Y152194D01*
X348323Y153972D01*
X348323Y153972D01*
X348744Y154602D01*
X348892Y155345D01*
X349310Y156086D01*
X349912Y156488D01*
X350314Y157090D01*
X350455Y157800D01*
Y167100D01*
X350314Y167810D01*
X349912Y168412D01*
X349310Y168815D01*
X348600Y168956D01*
X345300D01*
X344590Y168815D01*
X343988Y168412D01*
X343585Y167810D01*
X343444Y167100D01*
Y157800D01*
X343585Y157090D01*
X343846Y156700D01*
X343691Y155740D01*
X343508Y155281D01*
X342999Y154941D01*
X341221Y153163D01*
X340800Y152533D01*
X340653Y151789D01*
Y138448D01*
X339382Y137600D01*
X338924Y137790D01*
X337416D01*
X336023Y137213D01*
X334957Y136147D01*
X334380Y134754D01*
Y133246D01*
X334957Y131853D01*
X336023Y130787D01*
X336227Y130702D01*
Y118905D01*
X336375Y118162D01*
X336796Y117532D01*
X338058Y116270D01*
Y103805D01*
X321958Y87705D01*
X321754Y87790D01*
X320246D01*
X318853Y87213D01*
X317787Y86147D01*
X317597Y85688D01*
X316099Y85390D01*
X295116Y106374D01*
X294485Y106795D01*
X293742Y106942D01*
X286629D01*
X286256Y107844D01*
X284844Y109256D01*
X283400Y109854D01*
X282943Y111194D01*
X303382Y131633D01*
X307730D01*
Y124350D01*
X316270D01*
Y128244D01*
X324566D01*
X325099Y128350D01*
X331270D01*
Y136290D01*
X328398D01*
X327589Y136625D01*
X326577D01*
Y139365D01*
X326429Y140108D01*
X326008Y140739D01*
X326008Y140739D01*
X320705Y146042D01*
X320790Y146246D01*
Y147754D01*
X320213Y149147D01*
X319147Y150213D01*
X317754Y150790D01*
X316246D01*
X314853Y150213D01*
X313787Y149147D01*
X313210Y147754D01*
Y146246D01*
X313787Y144853D01*
X314853Y143787D01*
X316246Y143210D01*
X317754D01*
X317958Y143295D01*
X322205Y139048D01*
X322116Y138452D01*
X321602Y138176D01*
X320751Y137906D01*
X319555Y138401D01*
X318047D01*
X316654Y137824D01*
X315430Y138396D01*
Y138754D01*
X314853Y140147D01*
X313787Y141213D01*
X312394Y141790D01*
X310886D01*
X309493Y141213D01*
X308427Y140147D01*
X308342Y139942D01*
X303410D01*
X302667Y139795D01*
X302037Y139373D01*
X270722Y108059D01*
X269549Y108545D01*
Y121534D01*
X270819Y122257D01*
X271331Y121954D01*
X271787Y120853D01*
X272853Y119787D01*
X274246Y119210D01*
X275754D01*
X277147Y119787D01*
X278213Y120853D01*
X278790Y122246D01*
Y123754D01*
X278213Y125147D01*
X277147Y126213D01*
X275754Y126790D01*
X274246D01*
X273707Y126566D01*
X272814Y127459D01*
Y174581D01*
X280443Y182210D01*
X281714D01*
X283107Y182787D01*
X284173Y183853D01*
X284750Y185246D01*
Y186754D01*
X284173Y188147D01*
X283107Y189213D01*
X281714Y189790D01*
X280206D01*
X278813Y189213D01*
X277747Y188147D01*
X277170Y186754D01*
Y185483D01*
X270722Y179035D01*
X269549Y179521D01*
Y251944D01*
X291056Y273451D01*
X328730D01*
Y245291D01*
D02*
G37*
G36*
X399451Y251944D02*
Y180715D01*
X398278Y180229D01*
X380789Y197718D01*
X379542Y198551D01*
X378071Y198844D01*
X378071Y198844D01*
X361955D01*
X361955Y198844D01*
X360484Y198551D01*
X359237Y197718D01*
X343416Y181897D01*
X341918Y182195D01*
X341743Y182617D01*
X340677Y183683D01*
X339643Y184111D01*
X339625Y184198D01*
X339204Y184828D01*
X334037Y189995D01*
Y195364D01*
X334628Y195955D01*
X335049Y196586D01*
X335133Y197006D01*
X335477Y197350D01*
X341270D01*
Y205290D01*
X333249D01*
X332719Y206555D01*
X346221Y220058D01*
X372230D01*
Y217230D01*
X391770D01*
Y226770D01*
X373813D01*
X373287Y228040D01*
X374977Y229730D01*
X391770D01*
Y239270D01*
X376578D01*
X375899Y240540D01*
X375930Y240586D01*
X376078Y241329D01*
X376887Y242230D01*
X391770D01*
Y251770D01*
X372230D01*
Y244322D01*
X372193Y244135D01*
Y242134D01*
X369843Y239784D01*
X368670Y240270D01*
Y273451D01*
X377944D01*
X399451Y251944D01*
D02*
G37*
G36*
X277146Y103601D02*
X277744Y102157D01*
X279156Y100744D01*
X281001Y99980D01*
X282999D01*
X284844Y100744D01*
X286256Y102157D01*
X286629Y103058D01*
X292938D01*
X322369Y73627D01*
X322369Y73627D01*
X322999Y73206D01*
X323742Y73058D01*
X323742Y73058D01*
X365580D01*
Y70730D01*
X373720D01*
X373720Y70730D01*
X374280D01*
Y70730D01*
X374990Y70730D01*
X382420D01*
Y79270D01*
X377027D01*
X372240Y84057D01*
X372726Y85230D01*
X373270D01*
Y93952D01*
X378911Y99593D01*
X382084D01*
X382088Y99588D01*
X382690Y99186D01*
X383400Y99045D01*
X385475D01*
X386001Y97775D01*
X384997Y96770D01*
X378730D01*
Y85230D01*
X388270D01*
Y93497D01*
X390918Y96145D01*
X392126Y95557D01*
Y92560D01*
X392302Y91674D01*
X392804Y90923D01*
X393156Y90571D01*
Y67592D01*
X375408Y49844D01*
X357020D01*
Y57520D01*
X358205Y57726D01*
X371976D01*
X373333Y57163D01*
X374841D01*
X376234Y57740D01*
X377300Y58806D01*
X377877Y60199D01*
Y61707D01*
X377300Y63100D01*
X376234Y64166D01*
X374841Y64743D01*
X373333D01*
X371940Y64166D01*
X370874Y63100D01*
X370565Y62354D01*
X343045D01*
X342147Y63253D01*
X340754Y63830D01*
X339246D01*
X337853Y63253D01*
X336895Y62295D01*
X334480D01*
X333594Y62118D01*
X332843Y61617D01*
X328747Y57520D01*
X323480D01*
Y37980D01*
X323567D01*
X324416Y36710D01*
X324210Y36214D01*
Y34706D01*
X324787Y33313D01*
X325853Y32247D01*
X327246Y31670D01*
X328754D01*
X330147Y32247D01*
X331213Y33313D01*
X331298Y33518D01*
X333460D01*
X334203Y33665D01*
X334833Y34086D01*
X338727Y37980D01*
X341385D01*
X341871Y36807D01*
X332282Y27218D01*
X331449Y25971D01*
X331156Y24500D01*
X331156Y24500D01*
Y20000D01*
X331210Y19729D01*
Y19246D01*
X331395Y18800D01*
X331449Y18529D01*
X331602Y18299D01*
X331787Y17853D01*
X332128Y17512D01*
X332282Y17282D01*
X332512Y17128D01*
X332853Y16787D01*
X333299Y16602D01*
X333529Y16449D01*
X333800Y16395D01*
X334246Y16210D01*
X334729D01*
X335000Y16156D01*
X335271Y16210D01*
X335754D01*
X336200Y16395D01*
X336471Y16449D01*
X336701Y16602D01*
X337147Y16787D01*
X337488Y17128D01*
X337718Y17282D01*
X337872Y17512D01*
X338213Y17853D01*
X338398Y18299D01*
X338551Y18529D01*
X338605Y18800D01*
X338790Y19246D01*
Y19729D01*
X338844Y20000D01*
Y22908D01*
X353916Y37980D01*
X357020D01*
Y42156D01*
X377000D01*
X377000Y42156D01*
X378471Y42449D01*
X379718Y43282D01*
X398278Y61842D01*
X399451Y61356D01*
Y16056D01*
X385944Y2549D01*
X285056D01*
X269549Y18056D01*
Y76045D01*
X270722Y76531D01*
X277353Y69900D01*
X276980Y68998D01*
Y67001D01*
X277744Y65156D01*
X279156Y63744D01*
X281001Y62980D01*
X282999D01*
X284844Y63744D01*
X286256Y65156D01*
X287020Y67001D01*
Y68998D01*
X286256Y70844D01*
X284844Y72256D01*
X282999Y73020D01*
X281001D01*
X280100Y72647D01*
X272402Y80344D01*
Y85191D01*
X273576Y85677D01*
X277353Y81900D01*
X276980Y80998D01*
Y79001D01*
X277744Y77156D01*
X279156Y75744D01*
X281001Y74980D01*
X282999D01*
X284844Y75744D01*
X286256Y77156D01*
X287020Y79001D01*
Y80998D01*
X286256Y82844D01*
X284844Y84256D01*
X282999Y85020D01*
X281001D01*
X280100Y84647D01*
X279337Y85409D01*
X279584Y86952D01*
X280240Y87296D01*
X281001Y86980D01*
X282999D01*
X284844Y87744D01*
X286256Y89156D01*
X287020Y91001D01*
Y92999D01*
X286256Y94844D01*
X284844Y96256D01*
X282999Y97020D01*
X281001D01*
X279156Y96256D01*
X277744Y94844D01*
X277722Y94790D01*
X276671D01*
X276212Y94600D01*
X274942Y95449D01*
Y103193D01*
X275807Y104057D01*
X277146Y103601D01*
D02*
G37*
%LPC*%
G36*
X277754Y227790D02*
X276246D01*
X274853Y227213D01*
X273787Y226147D01*
X273210Y224754D01*
Y223246D01*
X273787Y221853D01*
X274853Y220787D01*
X276246Y220210D01*
X276829D01*
X276838Y220201D01*
Y212198D01*
X275787Y211147D01*
X275210Y209754D01*
Y208246D01*
X275787Y206853D01*
X276853Y205787D01*
X278246Y205210D01*
X279754D01*
X281147Y205787D01*
X282213Y206853D01*
X282790Y208246D01*
Y209754D01*
X282213Y211147D01*
X281161Y212198D01*
Y221096D01*
X280997Y221923D01*
X280531Y222621D01*
X280790Y223246D01*
Y224754D01*
X280213Y226147D01*
X279147Y227213D01*
X277754Y227790D01*
D02*
G37*
G36*
X362277Y175444D02*
X360769D01*
X359376Y174867D01*
X358310Y173801D01*
X357733Y172408D01*
Y170900D01*
X358012Y170226D01*
X358011Y170077D01*
X357339Y168832D01*
X357324Y168822D01*
X357290Y168815D01*
X356688Y168412D01*
X356285Y167810D01*
X356144Y167100D01*
Y157800D01*
X356285Y157090D01*
X356688Y156488D01*
X357290Y156086D01*
X358000Y155945D01*
X361300D01*
X362010Y156086D01*
X362612Y156488D01*
X363805Y155988D01*
X364370Y155423D01*
X365001Y155002D01*
X365744Y154854D01*
X366796D01*
X367539Y155002D01*
X368170Y155423D01*
X369049Y156302D01*
X369665D01*
X369990Y156086D01*
X370700Y155945D01*
X374000D01*
X374710Y156086D01*
X375312Y156488D01*
X375714Y157090D01*
X375855Y157800D01*
Y167100D01*
X375714Y167810D01*
X375312Y168412D01*
X374710Y168815D01*
X374000Y168956D01*
X370700D01*
X369990Y168815D01*
X369388Y168412D01*
X368985Y167810D01*
X368844Y167100D01*
Y160187D01*
X368245D01*
X367637Y160066D01*
X367375Y160125D01*
X366367Y160809D01*
Y168299D01*
X366219Y169042D01*
X365798Y169672D01*
X365095Y170375D01*
X365313Y170900D01*
Y172408D01*
X364736Y173801D01*
X363670Y174867D01*
X362277Y175444D01*
D02*
G37*
%LPD*%
D10*
X325480Y176210D02*
X326450Y177180D01*
X332000D01*
X319016Y176210D02*
X325480D01*
X394440Y92560D02*
X397000Y90000D01*
X394440Y92560D02*
Y99040D01*
X390129Y113748D02*
X390710Y113167D01*
Y106359D02*
Y113167D01*
X389650Y105299D02*
X390710Y106359D01*
X389650Y98150D02*
Y105299D01*
X385000Y93500D02*
X389650Y98150D01*
X389770Y114330D02*
Y154730D01*
X390129Y113748D02*
X390710Y114330D01*
X333572Y180798D02*
Y183605D01*
X332582Y176582D02*
Y179808D01*
X333572Y180798D01*
X328830Y188348D02*
X333572Y183605D01*
X328830Y188348D02*
Y199156D01*
X385050Y159450D02*
X389770Y154730D01*
X385050Y159450D02*
Y162450D01*
X370000Y186000D02*
X371000Y187000D01*
X370000Y181940D02*
Y186000D01*
X376640Y174700D02*
X383670Y167670D01*
X376640Y175000D02*
Y175300D01*
X370000Y181940D02*
X376640Y175300D01*
X281500Y91500D02*
X282000Y92000D01*
X277925Y91500D02*
X281500D01*
X277425Y91000D02*
X277925Y91500D01*
X274000Y123000D02*
X275000D01*
X270500Y175540D02*
X280960Y186000D01*
X270500Y126500D02*
Y175540D01*
Y126500D02*
X274000Y123000D01*
X317000Y212177D02*
Y213000D01*
X316149Y211327D02*
X317000Y212177D01*
X316149Y179077D02*
Y211327D01*
Y179077D02*
X319016Y176210D01*
X309000Y216000D02*
X325000Y232000D01*
X309000Y204000D02*
Y216000D01*
X325000Y232000D02*
X359000D01*
X376640Y174700D02*
Y175000D01*
X373953Y60953D02*
X374087D01*
X373040Y60040D02*
X373953Y60953D01*
X340000Y60040D02*
X373040D01*
X327000Y54000D02*
X328500D01*
X334480Y59980D01*
X339940D01*
X340000Y60040D01*
X358000Y245000D02*
X360000Y243000D01*
Y232000D02*
Y243000D01*
D13*
X326020Y133000D02*
X328000D01*
X317000Y147000D02*
X324635Y139365D01*
Y134385D02*
X326020Y133000D01*
X324635Y134385D02*
Y139365D01*
X324405Y185595D02*
Y200988D01*
X327967Y182033D02*
X327967D01*
X324405Y185595D02*
X327967Y182033D01*
X312836Y130186D02*
X324566D01*
X311640Y128990D02*
X312836Y130186D01*
X324566D02*
X326000Y131620D01*
X330300Y119680D02*
X332620Y122000D01*
X334905Y124285D01*
X360489Y95639D02*
X361210Y94918D01*
X359650Y105550D02*
X360489Y104711D01*
Y95639D02*
Y104711D01*
X342540Y100188D02*
X352000Y90728D01*
Y90000D02*
Y90728D01*
X333745Y151745D02*
X338000Y156000D01*
X333745Y130421D02*
Y151745D01*
Y130421D02*
X334905Y129261D01*
X338000Y156000D02*
Y157000D01*
X338170Y118905D02*
Y134000D01*
X340000Y103000D02*
Y117075D01*
X338170Y118905D02*
X340000Y117075D01*
X330000Y119680D02*
X330300D01*
X334905Y124285D02*
Y129261D01*
X302577Y133575D02*
X313473D01*
X314376Y134478D01*
X318668D02*
X318801Y134611D01*
X314376Y134478D02*
X318668D01*
X303410Y138000D02*
X311640D01*
X337831Y181169D02*
X338530Y180470D01*
X342540Y100188D02*
Y126000D01*
X342595Y126055D01*
X321000Y84000D02*
X340000Y103000D01*
X342595Y126055D02*
Y151789D01*
X344373Y153567D02*
X345172D01*
X342595Y151789D02*
X344373Y153567D01*
X346950Y155345D02*
Y162450D01*
X345172Y153567D02*
X346950Y155345D01*
X345417Y222000D02*
X382000D01*
X332095Y189191D02*
X337831Y183455D01*
X333255Y197875D02*
X336700Y201320D01*
X333255Y197329D02*
Y197875D01*
X337831Y181169D02*
Y183455D01*
X332095Y196169D02*
X333255Y197329D01*
X332095Y189191D02*
Y196169D01*
X336700Y201320D02*
X337000D01*
X324405Y200988D02*
X345417Y222000D01*
X344365Y224540D02*
X365540D01*
X321000Y201175D02*
X344365Y224540D01*
X321000Y181000D02*
Y201175D01*
X364425Y158115D02*
Y168299D01*
X361523Y171201D02*
Y171654D01*
Y171201D02*
X364425Y168299D01*
X366280Y104000D02*
X370800D01*
X317000Y212000D02*
Y212177D01*
Y212000D02*
X319054Y209946D01*
X321946D01*
X339080Y227080D01*
X361338D02*
X362258Y228000D01*
X363000D01*
X339080Y227080D02*
X361338D01*
X368000Y227000D02*
X369500D01*
X363000Y228000D02*
X368568Y233568D01*
Y235761D01*
X374135Y241329D01*
Y244135D01*
X377000Y247000D01*
X382000D01*
X365540Y224540D02*
X368000Y227000D01*
X328000Y35460D02*
X333460D01*
X340250Y42250D01*
Y47750D01*
X279000Y105000D02*
X293742D01*
X323742Y75000D01*
X369650D01*
X273000Y89000D02*
Y103998D01*
X270460Y105050D02*
X303410Y138000D01*
X270460Y79540D02*
X282000Y68000D01*
X270460Y79540D02*
Y105050D01*
X273000Y103998D02*
X302577Y133575D01*
X273000Y89000D02*
X282000Y80000D01*
X369000Y84550D02*
X378350Y75200D01*
X369000Y84550D02*
Y89000D01*
X378350Y75000D02*
Y75200D01*
X383485Y109565D02*
X385000Y108050D01*
X378107Y109565D02*
X383485D01*
X375017Y112655D02*
X378107Y109565D01*
X366655Y112655D02*
X375017D01*
X366000Y112000D02*
X366655Y112655D01*
X385000Y108000D02*
Y108050D01*
X365345Y112655D02*
X366000Y112000D01*
X370800Y104000D02*
X372350Y105550D01*
X385050Y103100D02*
Y105550D01*
X383485Y101535D02*
X385050Y103100D01*
X378107Y101535D02*
X383485D01*
X371571Y95000D02*
X378107Y101535D01*
X365744Y156796D02*
X366796D01*
X364425Y158115D02*
X365744Y156796D01*
X366796D02*
X368245Y158245D01*
X370785D01*
X372350Y159810D02*
Y162450D01*
X370785Y158245D02*
X372350Y159810D01*
X359650Y161350D02*
X360000Y161000D01*
X359650Y161350D02*
Y162450D01*
X377000Y234500D02*
X382000D01*
X369500Y227000D02*
X377000Y234500D01*
D15*
X277000Y223096D02*
X279000Y221096D01*
X277000Y223096D02*
Y224000D01*
X279000Y209000D02*
Y221096D01*
D18*
X378350Y75000D02*
D03*
X369650D02*
D03*
D22*
X368000Y175000D02*
D03*
X376640D02*
D03*
D23*
X312000Y128320D02*
D03*
Y119680D02*
D03*
X327000Y123680D02*
D03*
Y132320D02*
D03*
X337000Y192680D02*
D03*
Y201320D02*
D03*
D24*
X310600Y256000D02*
D03*
D25*
X361400D02*
D03*
X336000D02*
D03*
D31*
X296750Y15750D02*
D03*
X371250D02*
D03*
D32*
X315250Y47750D02*
D03*
X327750D02*
D03*
X352750D02*
D03*
X340250D02*
D03*
D55*
X336000Y244947D02*
Y256000D01*
X397000Y66000D02*
Y176071D01*
X361955Y195000D02*
X378071D01*
X334758Y168000D02*
X341949Y175190D01*
X317000Y168000D02*
X334758D01*
X342146Y175190D02*
X361955Y195000D01*
X341949Y175190D02*
X342146D01*
X377000Y46000D02*
X397000Y66000D01*
X378071Y195000D02*
X397000Y176071D01*
X302710Y182290D02*
Y217710D01*
Y182290D02*
X317000Y168000D01*
X332500Y241447D02*
X336000Y244947D01*
X302710Y217710D02*
X326447Y241447D01*
X332500D01*
X354000Y46000D02*
X377000D01*
X352750Y42250D02*
Y47750D01*
X335000Y24500D02*
X352750Y42250D01*
X335000Y20000D02*
Y24500D01*
D56*
X319320Y122000D02*
X332620D01*
X316000Y118680D02*
X319320Y122000D01*
X355848Y96000D02*
X356000D01*
X353500D02*
X355848D01*
Y93280D02*
Y96000D01*
X346950Y102550D02*
Y105550D01*
Y102550D02*
X353500Y96000D01*
X357040Y91961D02*
Y92088D01*
Y91961D02*
X358000Y91001D01*
X355848Y93280D02*
X357040Y92088D01*
X358000Y80000D02*
Y91001D01*
X338000Y157000D02*
Y157500D01*
X354000Y171000D02*
Y174000D01*
Y143000D02*
Y171000D01*
X338000Y157500D02*
Y164142D01*
X333125Y162375D02*
X338000Y157500D01*
X353170Y170170D02*
X354000Y171000D01*
X344028Y170170D02*
X353170D01*
X338000Y164142D02*
X344028Y170170D01*
X346950Y105550D02*
Y126950D01*
X349000Y129000D01*
X360508Y176694D02*
X366550D01*
X354000Y174000D02*
X356562Y176562D01*
X360376D02*
X360508Y176694D01*
X366550D02*
X368000Y175244D01*
X356562Y176562D02*
X360376D01*
X368000Y175000D02*
Y175244D01*
X275290Y132000D02*
X279962Y136672D01*
Y137962D02*
X299000Y157000D01*
X353250Y142250D02*
X361500Y134000D01*
X310707Y234817D02*
Y243900D01*
X279962Y136672D02*
Y137962D01*
X286000Y178000D02*
Y219900D01*
X310000Y243900D01*
X310707Y234817D02*
X310815Y234710D01*
X286000Y175000D02*
Y178000D01*
X282486Y177486D02*
X285486D01*
X286000Y178000D01*
X282000Y177000D02*
X282486Y177486D01*
X298000Y10000D02*
X367500D01*
X354000Y11000D02*
X362000Y19000D01*
Y39710D01*
X312020Y102000D02*
X329200Y119180D01*
X311000Y102000D02*
X312020D01*
X298625Y162375D02*
X333125D01*
X299000Y157000D02*
Y162000D01*
X367500Y10000D02*
X371250Y13750D01*
Y15750D01*
X296750D02*
Y41250D01*
X297000Y41000D02*
X313500D01*
X315250Y42750D02*
Y47750D01*
X313500Y41000D02*
X315250Y42750D01*
X283000Y55000D02*
X296750Y41250D01*
X283000Y55000D02*
Y55000D01*
X340518Y195898D02*
X340842D01*
X342520Y197576D01*
Y202520D01*
X337000Y192680D02*
X337300D01*
X340518Y195898D01*
X342520Y202520D02*
X350000Y210000D01*
X351000D01*
X351500Y209500D01*
X382000D01*
X286000Y175000D02*
X298625Y162375D01*
D58*
X317000Y147000D02*
D03*
X327967Y182033D02*
D03*
X332000Y177180D02*
D03*
X336000Y263000D02*
D03*
Y250000D02*
D03*
X361210Y94918D02*
D03*
X358000Y80000D02*
D03*
X352000Y90000D02*
D03*
X394440Y99040D02*
D03*
X390710Y114330D02*
D03*
X338170Y134000D02*
D03*
X326835Y132835D02*
D03*
X318801Y134611D02*
D03*
X311640Y128990D02*
D03*
Y138000D02*
D03*
X338530Y180470D02*
D03*
X384834Y149676D02*
D03*
X328830Y199156D02*
D03*
X371000Y187000D02*
D03*
X361523Y171654D02*
D03*
X383000Y167000D02*
D03*
X366280Y104000D02*
D03*
X277425Y91000D02*
D03*
X275000Y123000D02*
D03*
X275290Y132000D02*
D03*
X280960Y186000D02*
D03*
X317000Y213000D02*
D03*
X310815Y234710D02*
D03*
X282000Y177000D02*
D03*
X338000Y156000D02*
D03*
X362000Y39710D02*
D03*
X384000Y138000D02*
D03*
X311000Y102000D02*
D03*
X371000Y11000D02*
D03*
X328000Y35460D02*
D03*
X374087Y60953D02*
D03*
X340000Y60040D02*
D03*
X335000Y20000D02*
D03*
X360000Y232000D02*
D03*
X321000Y181000D02*
D03*
Y84000D02*
D03*
X366000Y112000D02*
D03*
X360000Y161000D02*
D03*
X309000Y204000D02*
D03*
X277000Y224000D02*
D03*
X279000Y209000D02*
D03*
D59*
X396000Y246000D02*
D03*
Y226000D02*
D03*
Y206000D02*
D03*
X391000Y256000D02*
D03*
Y196000D02*
D03*
Y16000D02*
D03*
X376000Y266000D02*
D03*
X381000Y256000D02*
D03*
Y116000D02*
D03*
X376000Y86000D02*
D03*
X381000Y16000D02*
D03*
X376000Y6000D02*
D03*
X366000Y26000D02*
D03*
Y6000D02*
D03*
X356000Y26000D02*
D03*
X361000Y16000D02*
D03*
X356000Y6000D02*
D03*
X351000Y216000D02*
D03*
X346000Y206000D02*
D03*
Y26000D02*
D03*
X351000Y16000D02*
D03*
X346000Y6000D02*
D03*
X336000Y146000D02*
D03*
Y86000D02*
D03*
X341000Y16000D02*
D03*
X336000Y6000D02*
D03*
X326000Y266000D02*
D03*
X331000Y156000D02*
D03*
X326000Y146000D02*
D03*
Y66000D02*
D03*
Y6000D02*
D03*
X321000Y256000D02*
D03*
Y156000D02*
D03*
Y96000D02*
D03*
X316000Y6000D02*
D03*
X306000Y86000D02*
D03*
Y46000D02*
D03*
Y26000D02*
D03*
X311000Y16000D02*
D03*
X306000Y6000D02*
D03*
X301000Y76000D02*
D03*
Y56000D02*
D03*
X296000Y46000D02*
D03*
Y26000D02*
D03*
X301000Y16000D02*
D03*
X296000Y6000D02*
D03*
X291000Y96000D02*
D03*
X286000Y46000D02*
D03*
Y26000D02*
D03*
X291000Y16000D02*
D03*
X286000Y6000D02*
D03*
D60*
X383500Y91000D02*
D03*
X368500D02*
D03*
D61*
X282000Y105000D02*
D03*
X282000Y92000D02*
D03*
Y80000D02*
D03*
Y68000D02*
D03*
X282000Y56000D02*
D03*
D62*
X366000Y134000D02*
D03*
D63*
X385050Y162450D02*
D03*
X372350D02*
D03*
X359650D02*
D03*
X346950D02*
D03*
Y105550D02*
D03*
X359650D02*
D03*
X372350D02*
D03*
X385050D02*
D03*
D64*
X382000Y247000D02*
D03*
Y234500D02*
D03*
Y222000D02*
D03*
Y209500D02*
D03*
M02*
